<mxfile host="app.diagrams.net" modified="2023-11-01T21:50:00.723Z" agent="5.0 (Windows NT 10.0; Win64; x64) AppleWebKit/537.36 (KHTML, like Gecko) Chrome/119.0.0.0 Safari/537.36" version="20.8.4" etag="9q-HlcMbovgSSWfdaso3" type="github">
  <diagram id="YJtCe3TODyCgpTlXsi6X" name="Page-1">
    <mxGraphModel dx="934" dy="841" grid="1" gridSize="10" guides="1" tooltips="1" connect="1" arrows="1" fold="1" page="1" pageScale="1" pageWidth="850" pageHeight="1100" math="0" shadow="0">
      <root>
        <mxCell id="0" />
        <mxCell id="1" parent="0" />
      </root>
    </mxGraphModel>
  </diagram>
</mxfile>
